<?xml version="1.0" encoding="UTF-8" standalone="no"?><svg xmlns="http://www.w3.org/2000/svg" xmlns:xlink="http://www.w3.org/1999/xlink" fill="#000000" height="60" preserveAspectRatio="xMidYMid meet" version="1" viewBox="0.0 0.0 150.0 60.0" width="150" zoomAndPan="magnify"><g data-name="Layer 2"><g data-name="Layer 1"><g id="change1_1"><path d="M142.663 30.009L0 30.009 7.337 0 150 0 142.663 30.009z" fill="#db0009"/></g><g id="change2_1"><path d="M12.319,5.621a36.685,36.685,0,0,1,5.738-.4c2.662,0,4.232.258,5.432,1.087a3.248,3.248,0,0,1,1.395,3.777A6.019,6.019,0,0,1,20.7,14.2l-.014.057a3.653,3.653,0,0,1,2.676,4.749,6.979,6.979,0,0,1-3,4.091c-1.675,1.116-4.177,1.746-8.014,1.746a32.181,32.181,0,0,1-4.654-.287ZM14.837,13h1.432c2.29,0,3.752-.944,4.1-2.375C20.728,9.168,19.8,8.4,17.824,8.4a12.584,12.584,0,0,0-1.889.114Zm-2.091,8.554a13.226,13.226,0,0,0,1.675.058c1.976,0,3.9-.744,4.4-2.776.475-1.945-1.082-2.717-3.258-2.717H14.075Z" fill="#ffffff"/></g><g id="change2_2"><path d="M29.611,5.621a40.388,40.388,0,0,1,5.91-.4c2.863,0,4.762.429,5.871,1.516a4.015,4.015,0,0,1,.789,4.034,7.094,7.094,0,0,1-4.568,4.75l-.021.086c1.212.543,1.642,1.831,1.7,3.6a51.178,51.178,0,0,0,.246,5.436H35.066a21.168,21.168,0,0,1-.247-4.492c.072-2.4-.6-3.061-2.366-3.089H31.136l-1.853,7.581H24.959Zm2.295,8.3h1.718c2.176,0,3.73-1.088,4.143-2.776.433-1.774-.552-2.66-2.55-2.689a11.575,11.575,0,0,0-2.01.143Z" fill="#ffffff"/></g><g id="change2_3"><path d="M55.412,16.492h-7.1L47.192,21.07h7.931l-.875,3.576H41.937L46.651,5.363H58.562l-.874,3.576h-7.53l-.98,4.006h7.1Z" fill="#ffffff"/></g><g id="change2_4"><path d="M62.93,19.7l-2.584,4.949H55.822L66.435,5.363h5.726l1.27,19.283h-4.7L68.456,19.7Zm5.694-3.262-.2-4.091c-.064-1.145-.058-2.575-.065-3.719H68.3c-.566,1.144-1.209,2.6-1.8,3.719l-2.145,4.091Z" fill="#ffffff"/></g><g id="change2_5"><path d="M80.721,5.363h4.323L82.96,13.889h.086c.611-.744,1.237-1.431,1.834-2.117l5.948-6.409h5.354l-8.393,8.211,4.022,11.072h-5.1l-2.689-8.325-2.157,2.031L80.33,24.646H76.006Z" fill="#ffffff"/></g><g id="change2_6"><path d="M102.68,5.363,97.966,24.646H93.585L98.3,5.363Z" fill="#ffffff"/></g><g id="change2_7"><path d="M101.745,24.646l4.714-19.283h5.1l2.281,7.067a44.506,44.506,0,0,1,1.534,6.609h.086A75.531,75.531,0,0,1,117.049,11l1.378-5.636h4.008l-4.714,19.283H113.14l-2.3-7.438a56.426,56.426,0,0,1-1.685-6.81l-.093.029c-.508,2.546-1.116,5.264-1.885,8.411l-1.42,5.808Z" fill="#ffffff"/></g><g id="change2_8"><path d="M137.835,23.759a24.372,24.372,0,0,1-6.707,1.088c-3.522,0-5.853-.887-7.209-2.6-1.369-1.659-1.727-4.177-1.006-7.009C124.508,8.825,130.07,5.163,136.4,5.163a11.6,11.6,0,0,1,5.123.944L139.752,9.6a9.319,9.319,0,0,0-4.293-.829,7.813,7.813,0,0,0-7.909,6.237c-.972,3.976.945,6.322,4.524,6.322a6.464,6.464,0,0,0,2.217-.286l.986-4.034H132.3l.832-3.4h7.186Z" fill="#ffffff"/></g><g id="change3_1"><path d="M135.326 60.019L47.789 60.019 55.126 30.009 142.663 30.009 135.326 60.019z" fill="#004b75"/></g><g id="change2_9"><path d="M57.14,54.67l4.714-19.283h5.1l2.281,7.066a44.564,44.564,0,0,1,1.534,6.609h.086a75.515,75.515,0,0,1,1.593-8.039l1.378-5.636H77.83L73.116,54.67H68.535l-2.3-7.439a56.645,56.645,0,0,1-1.686-6.809l-.093.029c-.507,2.546-1.115,5.264-1.884,8.411l-1.42,5.808Z" fill="#ffffff"/></g><g id="change2_10"><path d="M90.369,46.516h-7.1l-1.119,4.578H90.08l-.874,3.576H76.894l4.715-19.283h11.91l-.874,3.576h-7.53l-.979,4.005h7.1Z" fill="#ffffff"/></g><g id="change2_11"><path d="M95.5,54.67l.134-19.283H100.3l-.485,7.953c-.13,2.289-.337,4.778-.5,6.724h.057c.826-2.089,1.85-4.406,2.918-6.781l3.562-7.9H110.5l-.44,8.125c-.123,2.26-.312,4.32-.55,6.466h.057c.811-2.146,1.793-4.406,2.754-6.695l3.505-7.9h4.438l-9.7,19.283h-4.724l.4-8.3c.1-1.945.229-3.748.538-5.951h-.057c-.875,2.174-1.638,4.006-2.571,5.951l-3.861,8.3Z" fill="#ffffff"/></g><g id="change2_12"><path d="M118.818,50.178a9.327,9.327,0,0,0,4.545,1.2c2,0,3.267-.83,3.574-2.089.294-1.2-.454-1.888-2.571-2.718-2.934-1.115-4.59-2.889-3.9-5.693.8-3.29,4.168-5.808,8.72-5.808a10.208,10.208,0,0,1,4.687.973l-1.834,3.519a7.748,7.748,0,0,0-3.813-.916c-1.889,0-3.015.859-3.26,1.86-.3,1.23.654,1.774,2.914,2.718,3.1,1.259,4.269,3.033,3.6,5.751-.791,3.232-3.953,5.979-9.25,5.979a10.783,10.783,0,0,1-5.182-1.173Z" fill="#ffffff"/></g></g></g></svg>